<?xml version="1.0" standalone="no"?>
<!DOCTYPE svg PUBLIC "-//W3C//DTD SVG 20010904//EN"
 "http://www.w3.org/TR/2001/REC-SVG-20010904/DTD/svg10.dtd">
<svg version="1.0" xmlns="http://www.w3.org/2000/svg"
 width="1024.000000pt" height="1024.000000pt" viewBox="0 0 1024.000000 1024.000000"
 preserveAspectRatio="xMidYMid meet">

<g transform="translate(0.000000,1024.000000) scale(0.100000,-0.100000)"
fill="#000000" stroke="none">
<path d="M520 5376 l0 -3835 1138 -4 c987 -3 1153 -6 1262 -20 500 -67 907
-189 1320 -398 280 -141 511 -293 754 -495 l127 -105 123 104 c529 441 1165
738 1836 857 308 54 283 53 1503 57 l1137 4 0 3835 0 3835 -1157 -4 c-1248 -4
-1181 -1 -1503 -58 -533 -93 -1123 -340 -1540 -642 l-85 -62 -315 0 -315 0
-84 62 c-270 196 -702 411 -1052 522 -216 68 -448 119 -717 158 -103 15 -256
17 -1274 20 l-1158 4 0 -3835z m2346 3064 c71 -6 181 -17 244 -26 592 -79
1104 -309 1413 -634 l87 -91 0 -2951 0 -2951 -32 27 c-83 66 -281 193 -387
245 -209 105 -396 168 -631 213 -113 21 -131 22 -1197 25 l-1083 4 0 3074 0
3075 729 0 c400 0 786 -5 857 -10z"/>
</g>
</svg>
